<?xml version="1.0" encoding="UTF-8" standalone="no"?>
<!DOCTYPE svg PUBLIC "-//W3C//DTD SVG 1.1//EN" "http://www.w3.org/Graphics/SVG/1.1/DTD/svg11.dtd">
<svg width="100%" height="100%" viewBox="0 0 24 24" version="1.1" xmlns="http://www.w3.org/2000/svg" xmlns:xlink="http://www.w3.org/1999/xlink" xml:space="preserve" xmlns:serif="http://www.serif.com/" style="fill-rule:evenodd;clip-rule:evenodd;stroke-linejoin:round;stroke-miterlimit:2;">
    <g transform="matrix(0.023398,0,0,0.023398,0.301119,0.301119)">
        <g transform="matrix(19.048369,0,0,19.048369,-8903.651176,-7192.624775)">
            <path d="M487.569,426.064C482.279,426.064 478.173,424.115 475.252,420.217C472.33,416.318 467.87,410.813 467.87,403.7C467.87,396.685 472.33,391.253 475.252,387.404C478.173,383.555 482.279,381.63 487.569,381.63L488.741,381.63L488.741,386.025L488.057,386.025C484.2,386.025 481.225,387.571 479.134,390.663C477.042,393.756 472.996,398.101 472.996,403.7C472.996,409.397 477.042,413.816 479.134,416.957C481.225,420.099 484.2,421.669 488.057,421.669L488.741,421.669L488.741,426.064L487.569,426.064Z" style="fill-rule:nonzero;"/>
            <path d="M498.604,426.064L498.604,421.669L499.287,421.669C503.145,421.669 506.119,420.099 508.211,416.957C510.302,413.816 514.348,409.397 514.348,403.7C514.348,398.101 510.302,393.756 508.211,390.663C506.119,387.571 503.145,386.025 499.287,386.025L498.604,386.025L498.604,381.63L499.776,381.63C505.082,381.63 509.191,383.555 512.105,387.404C515.018,391.253 519.475,396.685 519.475,403.7C519.475,410.813 515.018,416.318 512.105,420.217C509.191,424.115 505.082,426.064 499.776,426.064L498.604,426.064Z" style="fill-rule:nonzero;"/>
        </g>
        <g transform="matrix(0,-6.992774,1,0,381.59687,4978.316203)">
            <path d="M593.94,76.806L644,76.806L644,76.811L679.397,324.336L670.985,383.163L639.071,160L593.94,160L593.94,76.806Z"/>
        </g>
    </g>
</svg>
